<?xml version="1.0" encoding="utf-8"?>
<!-- Generator: Adobe Illustrator 19.0.0, SVG Export Plug-In . SVG Version: 6.00 Build 0)  -->
<svg version="1.1" id="Layer_1" xmlns="http://www.w3.org/2000/svg" xmlns:xlink="http://www.w3.org/1999/xlink" x="0px" y="0px"
	 viewBox="0 0 265.3 98.9" style="enable-background:new 0 0 265.3 98.9;" xml:space="preserve">
	  <animate attributeName="height" values="50;10;50" begin="0.4s" dur="1s" repeatCount="indefinite" />
<style type="text/css">
	.st0{fill:#00A6E7;}
	.st1{fill:#EF8131;}
</style>
<g>
	<path class="st0" d="M30.4,29.4c5,0,9.1,4,9.1,9.1v9.1H21.3v3c0,1.7,1.3,3,3,3h13.9l-1.8,6H24.3c-5,0-9.1-4-9.1-9.1V38.4
		c0-5,4-9.1,9.1-9.1H30.4z M24.3,35.4c-1.7,0-3,1.3-3,3v3h12.1v-3c0-1.7-1.3-3-3-3H24.3z"/>
	<path class="st0" d="M55.8,47.5c-5,0-9.1-4-9.1-9.1c0-5,4-9.1,9.1-9.1H69l1.8,6H55.8c-1.7,0-3,1.3-3,3c0,1.7,1.2,3,3.6,3h6
		c5,0,9.1,4,9.1,9.1s-4,9.1-9.1,9.1H48.5l-1.8-6h15.7c1.7,0,3-1.3,3-3s-1.2-3-3.6-3H55.8z"/>
	<path class="st0" d="M78.7,38.4c0-5,4-9.1,9.1-9.1h12.1l1.8,6H87.8c-1.7,0-3,1.3-3,3v12.1c0,1.7,1.3,3,3,3h13.9l-1.2,6H87.8
		c-5,0-9.1-4-9.1-9.1V38.4z"/>
	<path class="st0" d="M108.9,35.4l1.8-6h12.1c5,0,9.1,4,9.1,9.1v21.2h-15.1c-5,0-9.1-4-9.1-9.1s4-9.1,9.1-9.1h9.1v-3
		c0-1.7-1.3-3-3-3H108.9z M125.9,53.5v-6h-9.1c-1.7,0-3,1.3-3,3s1.3,3,3,3H125.9z"/>
	<path class="st0" d="M140.4,38.4v-9.1h6v9.1c0,4.8,6,14.5,6,14.5s6-9.7,6-14.5v-9.1h6v9.1c0,7.9-9.1,21.2-9.1,21.2h-6
		C149.4,59.6,140.4,46.3,140.4,38.4z"/>
</g>
<g>
	<path class="st0" d="M228.2,59v1.2h-6V59c0-7.9,7.6-13.9,7.6-13.9s-7.6-6-7.6-13.9V30h6v1.2c0,6,6,10.3,6,10.3s6-4.2,6-10.3V30h6
		v1.2c0,7.9-7.6,13.9-7.6,13.9s7.6,6,7.6,13.9v1.2h-6V59c0-6-6-10.3-6-10.3S228.2,52.9,228.2,59z"/>
</g>
<g>
	<path class="st1" d="M17.2,72.2c0-0.5,0.1-1,0.2-1.5c0.1-0.5,0.3-0.9,0.6-1.2c0.3-0.3,0.6-0.6,0.9-0.8c0.4-0.2,0.8-0.3,1.2-0.3
		c0.3,0,0.6,0,0.8,0.1c0.2,0.1,0.4,0.2,0.6,0.4s0.3,0.4,0.4,0.7c0.1,0.3,0.1,0.6,0.1,1c0,0.5-0.1,1-0.2,1.5
		c-0.1,0.5-0.3,0.9-0.6,1.2c-0.3,0.3-0.6,0.6-0.9,0.8c-0.4,0.2-0.7,0.3-1.2,0.3c-0.7,0-1.1-0.2-1.5-0.6
		C17.3,73.5,17.2,72.9,17.2,72.2z M21.9,76c-0.3,0.1-0.5,0.1-0.8,0.1c-0.3,0-0.5,0-0.8-0.1c-0.2-0.1-0.5-0.1-0.7-0.2
		c-0.2-0.1-0.4-0.1-0.6-0.2c-0.2-0.1-0.4-0.1-0.6-0.1c-0.1,0-0.3,0-0.4,0l0.2-1c0.2,0,0.3,0,0.5,0c0.2,0,0.4,0,0.6,0.1
		c0.2,0.1,0.4,0.1,0.6,0.2s0.4,0.1,0.7,0.2s0.5,0.1,0.7,0.1c0.1,0,0.2,0,0.4,0s0.3,0,0.4-0.1L21.9,76z M18.3,72.1
		c0,0.4,0.1,0.7,0.2,1c0.2,0.2,0.4,0.4,0.7,0.4c0.3,0,0.5-0.1,0.7-0.2c0.2-0.2,0.4-0.4,0.5-0.6c0.1-0.3,0.3-0.5,0.3-0.9
		c0.1-0.3,0.1-0.7,0.1-1c0-0.4-0.1-0.8-0.3-1c-0.2-0.2-0.4-0.3-0.7-0.3c-0.2,0-0.5,0.1-0.7,0.2c-0.2,0.1-0.4,0.3-0.5,0.6
		c-0.2,0.2-0.3,0.5-0.4,0.9C18.3,71.4,18.3,71.8,18.3,72.1z"/>
	<path class="st1" d="M27.9,68.5h1l-0.8,3.7c-0.1,0.4-0.2,0.7-0.3,1s-0.3,0.5-0.5,0.7s-0.4,0.3-0.7,0.4c-0.3,0.1-0.5,0.1-0.9,0.1
		c-0.3,0-0.6,0-0.8-0.1c-0.2-0.1-0.4-0.2-0.5-0.3s-0.2-0.3-0.3-0.5C24,73.3,24,73.1,24,72.9c0-0.1,0-0.2,0-0.3s0-0.2,0.1-0.4
		l0.8-3.6h1.1l-0.8,3.6c0,0.2-0.1,0.4-0.1,0.5c0,0.3,0.1,0.5,0.2,0.6s0.3,0.2,0.6,0.2c0.3,0,0.6-0.1,0.8-0.3s0.3-0.5,0.4-0.9
		L27.9,68.5z"/>
	<path class="st1" d="M33.2,73h-1.7l-0.7,1.3h-1.1l3.2-5.8h0.8l0.7,5.8h-1.1L33.2,73z M31.9,72.1h1.2L33,70.8l0-0.9h0l-0.3,0.9
		L31.9,72.1z"/>
	<path class="st1" d="M39.9,74.3h-2.4h-1.1l1.2-5.8h1.1l-1,4.8h2.4L39.9,74.3z"/>
	<path class="st1" d="M43.3,68.5h1.1l-1.2,5.8h-1.1L43.3,68.5z"/>
	<path class="st1" d="M50.7,69.5h-1.6l-1,4.8H47l1-4.8h-1.6l0.2-1h4.3L50.7,69.5z"/>
	<path class="st1" d="M53,72.2l-1-3.6h1.2l0.5,2.2l0,0.6h0l0.3-0.6l1.5-2.2h1.2l-2.6,3.6l-0.5,2.2h-1.1L53,72.2z"/>
	<path class="st1" d="M62,68.6c0.2,0,0.5-0.1,0.7-0.1c0.3,0,0.5,0,0.8,0c0.3,0,0.5,0,0.8,0.1c0.2,0.1,0.4,0.2,0.6,0.3
		c0.2,0.1,0.3,0.3,0.4,0.5c0.1,0.2,0.1,0.5,0.1,0.7c0,0.4-0.1,0.8-0.2,1.1c-0.1,0.3-0.3,0.5-0.6,0.7c-0.2,0.2-0.5,0.3-0.8,0.4
		c-0.3,0.1-0.6,0.1-1,0.1c0,0-0.1,0-0.1,0c-0.1,0-0.1,0-0.2,0c-0.1,0-0.1,0-0.2,0c-0.1,0-0.1,0-0.1,0l-0.4,2h-1.1L62,68.6z
		 M62.5,71.4C62.5,71.4,62.5,71.4,62.5,71.4c0.1,0,0.2,0,0.2,0c0,0,0.1,0,0.1,0c0,0,0.1,0,0.1,0c0.2,0,0.4,0,0.5-0.1
		c0.2,0,0.3-0.1,0.5-0.2s0.2-0.2,0.3-0.4c0.1-0.1,0.1-0.3,0.1-0.5c0-0.2,0-0.3-0.1-0.4c-0.1-0.1-0.1-0.2-0.2-0.2
		c-0.1-0.1-0.2-0.1-0.3-0.1c-0.1,0-0.2,0-0.4,0c-0.1,0-0.2,0-0.3,0c-0.1,0-0.2,0-0.2,0L62.5,71.4z"/>
	<path class="st1" d="M68,68.6c0.3,0,0.5-0.1,0.8-0.1s0.5,0,0.7,0c0.3,0,0.5,0,0.7,0.1c0.2,0.1,0.4,0.2,0.6,0.3s0.3,0.3,0.4,0.5
		c0.1,0.2,0.1,0.4,0.1,0.7c0,0.3,0,0.6-0.1,0.8s-0.2,0.4-0.4,0.6c-0.1,0.2-0.3,0.3-0.5,0.4c-0.2,0.1-0.4,0.1-0.6,0.2l0.3,0.3
		l0.8,2.2h-1.2L69,72.1L68.4,72l-0.5,2.4h-1.1L68,68.6z M68.6,71.2H69c0.2,0,0.3,0,0.5,0s0.3-0.1,0.4-0.2c0.1-0.1,0.2-0.2,0.3-0.3
		c0.1-0.1,0.1-0.3,0.1-0.5c0-0.2-0.1-0.3-0.2-0.5c-0.1-0.1-0.3-0.2-0.6-0.2c-0.1,0-0.2,0-0.3,0c-0.1,0-0.2,0-0.2,0L68.6,71.2z"/>
	<path class="st1" d="M73.2,72.2c0-0.5,0.1-1,0.2-1.5c0.1-0.5,0.3-0.9,0.6-1.2c0.3-0.3,0.6-0.6,0.9-0.8c0.4-0.2,0.8-0.3,1.2-0.3
		c0.3,0,0.6,0,0.8,0.1c0.2,0.1,0.4,0.2,0.6,0.4s0.3,0.4,0.4,0.7c0.1,0.3,0.1,0.6,0.1,1c0,0.5-0.1,1-0.2,1.5
		c-0.1,0.5-0.3,0.9-0.6,1.2c-0.3,0.3-0.6,0.6-0.9,0.8c-0.4,0.2-0.7,0.3-1.2,0.3c-0.7,0-1.1-0.2-1.5-0.6
		C73.4,73.5,73.2,72.9,73.2,72.2z M74.3,72.1c0,0.4,0.1,0.7,0.2,1c0.2,0.2,0.4,0.4,0.7,0.4c0.3,0,0.5-0.1,0.7-0.2
		c0.2-0.2,0.4-0.4,0.5-0.6c0.1-0.3,0.3-0.5,0.3-0.9c0.1-0.3,0.1-0.7,0.1-1c0-0.4-0.1-0.8-0.3-1c-0.2-0.2-0.4-0.3-0.7-0.3
		c-0.2,0-0.5,0.1-0.7,0.2c-0.2,0.1-0.4,0.3-0.5,0.6c-0.2,0.2-0.3,0.5-0.4,0.9C74.4,71.4,74.3,71.8,74.3,72.1z"/>
	<path class="st1" d="M80.9,68.5c0.1,0,0.2,0,0.4,0c0.1,0,0.3,0,0.4,0c0.1,0,0.2,0,0.3,0c0,0,0.1,0,0.2,0s0.2,0,0.3,0
		c0.3,0,0.6,0,0.9,0.1c0.3,0.1,0.5,0.2,0.7,0.4c0.2,0.2,0.3,0.4,0.5,0.7c0.1,0.3,0.2,0.6,0.2,1c0,0.2,0,0.5-0.1,0.8
		s-0.1,0.6-0.2,0.8c-0.1,0.3-0.2,0.6-0.4,0.8c-0.2,0.3-0.4,0.5-0.7,0.7c-0.3,0.2-0.6,0.4-0.9,0.5c-0.4,0.1-0.8,0.2-1.3,0.2
		c-0.1,0-0.2,0-0.2,0c-0.1,0-0.1,0-0.2,0c-0.1,0-0.2,0-0.4,0c-0.1,0-0.3,0-0.4,0c-0.1,0-0.2,0-0.3,0L80.9,68.5z M81,73.4
		c0,0,0.1,0,0.1,0s0.1,0,0.2,0s0.1,0,0.2,0s0.1,0,0.1,0c0.4,0,0.7-0.1,1-0.3s0.5-0.4,0.7-0.7c0.2-0.3,0.3-0.5,0.4-0.9
		c0.1-0.3,0.1-0.6,0.1-0.9c0-0.4-0.1-0.8-0.3-1c-0.2-0.2-0.5-0.3-0.9-0.3c-0.1,0-0.2,0-0.3,0c-0.1,0-0.2,0-0.3,0L81,73.4z"/>
	<path class="st1" d="M90.5,68.5h1l-0.8,3.7c-0.1,0.4-0.2,0.7-0.3,1s-0.3,0.5-0.5,0.7s-0.4,0.3-0.7,0.4c-0.3,0.1-0.5,0.1-0.9,0.1
		c-0.3,0-0.6,0-0.8-0.1c-0.2-0.1-0.4-0.2-0.5-0.3s-0.2-0.3-0.3-0.5c-0.1-0.2-0.1-0.4-0.1-0.6c0-0.1,0-0.2,0-0.3s0-0.2,0.1-0.4
		l0.8-3.6h1.1l-0.8,3.6c0,0.2-0.1,0.4-0.1,0.5c0,0.3,0.1,0.5,0.2,0.6s0.3,0.2,0.6,0.2c0.3,0,0.6-0.1,0.8-0.3s0.3-0.5,0.4-0.9
		L90.5,68.5z"/>
	<path class="st1" d="M96.6,74.1c-0.4,0.2-0.8,0.4-1.4,0.4c-0.4,0-0.7-0.1-1-0.2c-0.3-0.1-0.5-0.3-0.7-0.5c-0.2-0.2-0.3-0.5-0.4-0.8
		s-0.1-0.6-0.1-0.9c0-0.7,0.1-1.2,0.3-1.7c0.2-0.5,0.4-0.8,0.7-1.1c0.3-0.3,0.6-0.5,1-0.6c0.4-0.1,0.8-0.2,1.2-0.2
		c0.3,0,0.6,0,0.8,0.1c0.2,0,0.4,0.1,0.5,0.2l-0.4,1c-0.1-0.1-0.2-0.1-0.4-0.1s-0.4,0-0.6,0c-0.3,0-0.5,0.1-0.8,0.2
		s-0.5,0.3-0.6,0.5c-0.2,0.2-0.3,0.5-0.4,0.8s-0.2,0.7-0.2,1c0,0.5,0.1,0.8,0.4,1.1c0.2,0.3,0.5,0.4,0.9,0.4c0.2,0,0.5,0,0.6-0.1
		c0.2-0.1,0.3-0.1,0.5-0.2L96.6,74.1z"/>
	<path class="st1" d="M99.9,68.5h1.1h2.2l-0.2,1h-2.2l-0.3,1.3h2l-0.2,1h-2l-0.3,1.4h2.2l-0.2,1h-2.2h-1.1L99.9,68.5z"/>
	<path class="st1" d="M111.5,71.9h-2l-0.5,2.4h-1.1l1.2-5.8h1.1l-0.5,2.4h2l0.5-2.4h1.1l-1.2,5.8H111L111.5,71.9z"/>
	<path class="st1" d="M117.6,73h-1.7l-0.7,1.3h-1.1l3.2-5.8h0.8l0.7,5.8h-1.1L117.6,73z M116.4,72.1h1.2l-0.1-1.3l0-0.9h0l-0.3,0.9
		L116.4,72.1z"/>
	<path class="st1" d="M124.8,69.7c-0.1-0.1-0.3-0.1-0.5-0.2s-0.4-0.1-0.7-0.1c-0.1,0-0.3,0-0.4,0c-0.1,0-0.2,0.1-0.3,0.1
		c-0.1,0.1-0.2,0.1-0.2,0.2c-0.1,0.1-0.1,0.2-0.1,0.3c0,0.2,0.1,0.3,0.2,0.4s0.2,0.2,0.4,0.3c0.2,0.1,0.3,0.2,0.5,0.3
		s0.3,0.2,0.5,0.3c0.2,0.1,0.3,0.3,0.4,0.5s0.2,0.4,0.2,0.7c0,0.3-0.1,0.6-0.2,0.8s-0.3,0.4-0.5,0.6c-0.2,0.1-0.5,0.3-0.7,0.3
		s-0.6,0.1-1,0.1c-0.2,0-0.4,0-0.5,0c-0.2,0-0.3,0-0.5-0.1c-0.1,0-0.3-0.1-0.4-0.1c-0.1,0-0.2-0.1-0.3-0.1l0.6-1
		c0.1,0,0.1,0.1,0.2,0.1s0.2,0.1,0.3,0.1c0.1,0,0.2,0.1,0.4,0.1c0.1,0,0.3,0,0.4,0c0.2,0,0.3,0,0.4,0s0.3-0.1,0.4-0.1
		s0.2-0.1,0.2-0.2c0.1-0.1,0.1-0.2,0.1-0.3c0-0.1,0-0.3-0.2-0.4c-0.1-0.1-0.2-0.2-0.4-0.3c-0.2-0.1-0.3-0.2-0.5-0.3
		c-0.2-0.1-0.3-0.2-0.5-0.4c-0.2-0.1-0.3-0.3-0.4-0.5c-0.1-0.2-0.1-0.4-0.1-0.7c0-0.3,0.1-0.6,0.2-0.8c0.1-0.2,0.3-0.4,0.5-0.6
		c0.2-0.1,0.4-0.2,0.7-0.3c0.3-0.1,0.5-0.1,0.8-0.1c0.2,0,0.3,0,0.5,0c0.2,0,0.3,0,0.5,0.1c0.1,0,0.3,0.1,0.4,0.1
		c0.1,0,0.2,0.1,0.3,0.1L124.8,69.7z"/>
	<path class="st1" d="M132.8,73h-1.7l-0.7,1.3h-1.1l3.2-5.8h0.8l0.7,5.8H133L132.8,73z M131.6,72.1h1.2l-0.1-1.3l0-0.9h0l-0.3,0.9
		L131.6,72.1z"/>
	<path class="st1" d="M141.3,71.9l-0.1,1h0l0.4-1l1.8-3.4h1.2l-3.3,5.8h-0.8l-0.8-5.8h1.2L141.3,71.9z"/>
	<path class="st1" d="M145.4,72.2c0-0.5,0.1-1,0.2-1.5c0.1-0.5,0.3-0.9,0.6-1.2c0.3-0.3,0.6-0.6,0.9-0.8c0.4-0.2,0.8-0.3,1.2-0.3
		c0.3,0,0.6,0,0.8,0.1c0.2,0.1,0.4,0.2,0.6,0.4s0.3,0.4,0.4,0.7c0.1,0.3,0.1,0.6,0.1,1c0,0.5-0.1,1-0.2,1.5s-0.3,0.9-0.6,1.2
		c-0.3,0.3-0.6,0.6-0.9,0.8c-0.4,0.2-0.7,0.3-1.2,0.3c-0.7,0-1.1-0.2-1.5-0.6C145.5,73.5,145.4,72.9,145.4,72.2z M146.5,72.1
		c0,0.4,0.1,0.7,0.2,1c0.2,0.2,0.4,0.4,0.7,0.4c0.3,0,0.5-0.1,0.7-0.2c0.2-0.2,0.4-0.4,0.5-0.6c0.1-0.3,0.3-0.5,0.3-0.9
		c0.1-0.3,0.1-0.7,0.1-1c0-0.4-0.1-0.8-0.3-1s-0.4-0.3-0.7-0.3c-0.2,0-0.5,0.1-0.7,0.2c-0.2,0.1-0.4,0.3-0.5,0.6
		c-0.2,0.2-0.3,0.5-0.4,0.9C146.5,71.4,146.5,71.8,146.5,72.1z"/>
	<path class="st1" d="M153.2,68.5h1.1l-1.2,5.8H152L153.2,68.5z"/>
	<path class="st1" d="M159.5,74.1c-0.4,0.2-0.8,0.4-1.4,0.4c-0.4,0-0.7-0.1-1-0.2c-0.3-0.1-0.5-0.3-0.7-0.5
		c-0.2-0.2-0.3-0.5-0.4-0.8c-0.1-0.3-0.1-0.6-0.1-0.9c0-0.7,0.1-1.2,0.3-1.7c0.2-0.5,0.4-0.8,0.7-1.1s0.6-0.5,1-0.6
		c0.4-0.1,0.8-0.2,1.2-0.2c0.3,0,0.6,0,0.8,0.1c0.2,0,0.4,0.1,0.5,0.2l-0.4,1c-0.1-0.1-0.2-0.1-0.4-0.1s-0.3,0-0.6,0
		c-0.3,0-0.5,0.1-0.8,0.2c-0.2,0.1-0.5,0.3-0.6,0.5s-0.3,0.5-0.4,0.8c-0.1,0.3-0.2,0.7-0.2,1c0,0.5,0.1,0.8,0.4,1.1
		c0.2,0.3,0.5,0.4,0.9,0.4c0.2,0,0.5,0,0.6-0.1c0.2-0.1,0.3-0.1,0.5-0.2L159.5,74.1z"/>
	<path class="st1" d="M162.8,68.5h1.1h2.2l-0.2,1h-2.2l-0.3,1.3h2l-0.2,1h-2l-0.3,1.4h2.2l-0.2,1h-2.2h-1.1L162.8,68.5z"/>
</g>
<path class="st1" d="M170.1,74.6c-0.6,0-1.1-0.5-1.1-1.1c0-0.6,0.5-1.1,1.1-1.1s1.1,0.5,1.1,1.1C171.1,74.1,170.7,74.6,170.1,74.6
	L170.1,74.6z"/>
<path class="st1" d="M193.6,24.3c12.7,0,22.8,8.2,22.8,18c0,9.8-10.1,18-22.8,18c-12.6,0-22.8-8.2-22.8-18
	C170.8,32.6,181,24.3,193.6,24.3 M193.6,56.8c9.8,0,18.1-6.5,18.1-14.5c0-8-8.3-14.5-18.1-14.5c-9.8,0-18.1,6.5-18.1,14.5
	C175.5,50.3,183.7,56.8,193.6,56.8"/>
<path class="st1" d="M193.6,61.8c-13.4,0-24.4-8.8-24.4-19.5s10.9-19.5,24.4-19.5c13.4,0,24.4,8.8,24.4,19.5S207,61.8,193.6,61.8
	 M193.6,25.9c-11.5,0-21.3,7.5-21.3,16.4c0,8.9,9.7,16.4,21.3,16.4c11.7,0,21.3-7.4,21.3-16.4C214.8,33.2,205.3,25.9,193.6,25.9
	 M193.6,58.3c-10.8,0-19.6-7.2-19.6-16c0-8.9,8.8-16.1,19.6-16.1c10.8,0,19.6,7.2,19.6,16.1C213.2,51.1,204.4,58.3,193.6,58.3
	 M193.6,29.3c-9,0-16.5,5.9-16.5,13c0,7,7.6,12.9,16.5,12.9c9,0,16.5-5.9,16.5-12.9C210.1,35.3,202.5,29.3,193.6,29.3"/>
<polygon class="st1" points="178,54.8 174.5,66.9 188.7,57.6 "/>
<path class="st1" d="M171.9,70.5l5.1-17.6l15.5,4.1L171.9,70.5z M179.1,56.7l-1.9,6.7l7.8-5.1L179.1,56.7z"/>




<!-- 
 
    <rect y="0" width="5" height="30" fill="#1fa2ff">
        <animate attributeName="height" values="50;10;50" begin="0s" dur="1s" repeatCount="indefinite" />
    </rect>
 
    <rect x="19" y="0" width="5" height="30" fill="#12d8fa">
        <animate attributeName="height" values="50;10;50" begin="0.2s" dur="1s" repeatCount="indefinite" />
    </rect>
 
    <rect x="38" y="0" width="5" height="30" fill="#06ffcb">
        <animate attributeName="height" values="50;10;50" begin="0.4s" dur="1s" repeatCount="indefinite" />
    </rect>
  -->



























</svg>
