<?xml version="1.0" encoding="utf-8"?>
<!-- Generator: Adobe Illustrator 19.0.0, SVG Export Plug-In . SVG Version: 6.00 Build 0)  -->
<svg version="1.1" id="Layer_1" xmlns="http://www.w3.org/2000/svg" xmlns:xlink="http://www.w3.org/1999/xlink" x="0px" y="0px"
	 viewBox="0 0 104 98.9" style="enable-background:new 0 0 104 98.9;" xml:space="preserve">
<style type="text/css">
	.st0{fill:#00A6E7;}
	.st1{fill:#FFFFFF;}
	.st2{fill:#EF8131;}
</style>
<g>
	<path class="st0" d="M32.9,79.4c1.4,0,2.5,1.1,2.5,2.5v2.5h-5v0.8c0,0.5,0.4,0.8,0.8,0.8h3.8l-0.5,1.7h-3.3c-1.4,0-2.5-1.1-2.5-2.5
		v-3.3c0-1.4,1.1-2.5,2.5-2.5H32.9z M31.3,81.1c-0.5,0-0.8,0.4-0.8,0.8v0.8h3.3v-0.8c0-0.5-0.4-0.8-0.8-0.8H31.3z"/>
	<path class="st0" d="M40,84.4c-1.4,0-2.5-1.1-2.5-2.5c0-1.4,1.1-2.5,2.5-2.5h3.7l0.5,1.7H40c-0.5,0-0.8,0.4-0.8,0.8s0.3,0.8,1,0.8
		h1.7c1.4,0,2.5,1.1,2.5,2.5s-1.1,2.5-2.5,2.5H38l-0.5-1.7h4.4c0.5,0,0.8-0.4,0.8-0.8s-0.3-0.8-1-0.8H40z"/>
	<path class="st0" d="M46.3,81.9c0-1.4,1.1-2.5,2.5-2.5h3.3l0.5,1.7h-3.8c-0.5,0-0.8,0.4-0.8,0.8v3.3c0,0.5,0.4,0.8,0.8,0.8h3.8
		l-0.3,1.7h-3.5c-1.4,0-2.5-1.1-2.5-2.5V81.9z"/>
	<path class="st0" d="M54.7,81.1l0.5-1.7h3.3c1.4,0,2.5,1.1,2.5,2.5v5.9h-4.2c-1.4,0-2.5-1.1-2.5-2.5s1.1-2.5,2.5-2.5h2.5v-0.8
		c0-0.5-0.4-0.8-0.8-0.8H54.7z M59.4,86.1v-1.7h-2.5c-0.5,0-0.8,0.4-0.8,0.8s0.4,0.8,0.8,0.8H59.4z"/>
	<path class="st0" d="M63.4,81.9v-2.5h1.7v2.5c0,1.3,1.7,4,1.7,4s1.7-2.7,1.7-4v-2.5h1.7v2.5c0,2.2-2.5,5.9-2.5,5.9h-1.7
		C65.9,87.7,63.4,84.1,63.4,81.9z"/>
	<path class="st0" d="M74.8,87.7c-1.4,0-2.5-1.1-2.5-2.5v-3.3c0-1.4,1.1-2.5,2.5-2.5h1.7c1.4,0,2.5,1.1,2.5,2.5v3.3
		c0,1.4-1.1,2.5-2.5,2.5H74.8z M76.5,86.1c0.5,0,0.8-0.4,0.8-0.8v-3.3c0-0.5-0.4-0.8-0.8-0.8h-1.7c-0.5,0-0.8,0.4-0.8,0.8v3.3
		c0,0.5,0.4,0.8,0.8,0.8H76.5z"/>
	<path class="st0" d="M82.8,87.4v0.3h-1.7v-0.3c0-2.2,2.1-3.8,2.1-3.8s-2.1-1.7-2.1-3.9v-0.3h1.7v0.3c0,1.7,1.7,2.8,1.7,2.8
		s1.7-1.2,1.7-2.8v-0.3h1.7v0.3c0,2.2-2.1,3.9-2.1,3.9s2.1,1.7,2.1,3.8v0.3h-1.7v-0.3c0-1.7-1.7-2.8-1.7-2.8S82.8,85.7,82.8,87.4z"
		/>
</g>
<path class="st1" d="M80.1,37.5c0,14.7-12.2,26.6-27.1,26.6c-15,0-27.1-11.9-27.1-26.6c0-14.7,12.2-26.6,27.1-26.6
	C67.9,10.9,80.1,22.8,80.1,37.5"/>
<path class="st2" d="M20.2,87.5c-1.7,0-3.1-1.4-3.1-3.2c0-1.8,1.4-3.2,3.2-3.2c1.7,0,3.2,1.4,3.2,3.2C23.4,86.1,21.9,87.5,20.2,87.5
	L20.2,87.5z"/>
<path class="st2" d="M52.6,9.6c19.5,0,35,12.6,35,27.6c0,15-15.6,27.6-35,27.6c-19.4,0-35.1-12.6-35.1-27.6
	C17.5,22.2,33.2,9.6,52.6,9.6 M52.6,59.5c15.1,0,27.8-9.9,27.8-22.2c0-12.3-12.7-22.3-27.8-22.3c-15.1,0-27.8,10-27.8,22.3
	C24.7,49.5,37.4,59.5,52.6,59.5"/>
<path class="st2" d="M52.6,67.2c-20.6,0-37.4-13.5-37.4-30s16.8-30,37.4-30c20.6,0,37.4,13.5,37.4,30S73.2,67.2,52.6,67.2 M52.6,12
	c-17.7,0-32.7,11.6-32.7,25.3c0,13.7,15,25.3,32.7,25.3c18,0,32.7-11.3,32.7-25.3C85.2,23.3,70.6,12,52.6,12 M52.6,61.8
	c-16.6,0-30.2-11-30.2-24.6c0-13.6,13.5-24.7,30.2-24.7c16.6,0,30.2,11.1,30.2,24.7C82.7,50.8,69.2,61.8,52.6,61.8 M52.6,17.3
	c-13.8,0-25.4,9.1-25.4,20c0,10.8,11.6,19.8,25.4,19.8C66.3,57.1,78,48,78,37.2C78,26.4,66.3,17.3,52.6,17.3"/>
<polygon class="st2" points="28.6,56.4 26.5,73.9 45,60.8 "/>
<path class="st2" d="M23.5,78.9l3.1-25.5l24,6.4L23.5,78.9z M30.7,59.4l-1.1,9.4l10-7.1L30.7,59.4z"/>
</svg>
